<?xml version="1.0" standalone="no"?>
<!DOCTYPE svg PUBLIC "-//W3C//DTD SVG 20010904//EN"
 "http://www.w3.org/TR/2001/REC-SVG-20010904/DTD/svg10.dtd">
<svg version="1.0" xmlns="http://www.w3.org/2000/svg"
 width="128.000000pt" height="128.000000pt" viewBox="0 0 128.000000 128.000000"
 preserveAspectRatio="xMidYMid meet">
<metadata>
Created by potrace 1.16, written by Peter Selinger 2001-2019
</metadata>
<g transform="translate(0.000000,128.000000) scale(0.100000,-0.100000)"
fill="#000000" stroke="none">
<path d="M0 1213 l0 -68 26 26 c25 26 26 27 9 53 -21 32 -13 46 13 23 25 -23
34 -21 62 8 l23 25 -66 0 -67 0 0 -67z"/>
<path d="M133 1241 l-32 -38 27 -26 c20 -21 24 -29 14 -39 -9 -9 -18 -6 -39
14 l-28 27 -37 -35 c-35 -31 -38 -39 -37 -87 0 -47 4 -55 35 -81 28 -23 37
-26 49 -16 13 11 15 6 15 -36 0 -37 -3 -45 -12 -36 -9 9 -20 4 -50 -25 -34
-33 -38 -43 -38 -85 0 -42 4 -52 37 -82 26 -23 42 -31 49 -25 15 12 22 -16 14
-56 -3 -20 -8 -26 -13 -18 -6 10 -19 5 -48 -19 -36 -29 -39 -35 -39 -80 0 -42
4 -51 37 -82 26 -23 42 -31 49 -25 15 12 22 -16 14 -56 -3 -20 -8 -26 -13 -18
-6 10 -19 5 -48 -19 -36 -29 -39 -35 -39 -80 0 -42 4 -52 38 -82 l37 -35 30
30 c24 23 34 26 43 17 9 -9 5 -19 -18 -43 l-30 -31 25 -24 c14 -13 25 -29 25
-37 0 -9 17 -13 58 -13 56 0 60 2 90 39 28 35 29 40 15 54 -14 14 -11 16 41
16 54 0 57 -2 43 -17 -14 -15 -12 -21 19 -54 31 -34 39 -38 84 -38 43 0 54 4
78 29 15 16 41 32 58 36 27 5 35 1 62 -30 28 -31 37 -35 82 -35 45 0 53 4 84
37 31 34 33 40 20 54 -13 15 -10 16 41 17 55 0 56 0 40 -18 -17 -18 -16 -21
11 -54 l29 -35 138 0 137 -1 0 66 0 66 -26 -32 c-25 -30 -26 -31 -9 -50 24
-26 12 -37 -18 -18 -21 14 -25 14 -46 -3 -24 -20 -51 -25 -51 -11 0 5 11 19
25 32 l25 24 -30 31 c-23 24 -27 34 -18 43 9 9 19 6 43 -17 l30 -30 38 35 c32
30 37 40 37 79 0 39 -5 49 -37 79 -28 25 -41 32 -50 24 -10 -8 -13 0 -13 37 0
37 3 45 13 37 9 -8 22 -1 50 24 32 30 37 40 37 79 0 40 -5 50 -37 78 -20 18
-43 31 -50 31 -9 -1 -13 11 -13 39 0 32 3 38 12 29 9 -9 20 -4 50 25 33 32 38
43 38 83 0 42 -4 50 -40 79 -22 18 -44 30 -49 27 -5 -3 -11 3 -14 14 -7 26 3
61 14 54 5 -3 27 9 49 27 36 29 40 37 40 78 0 39 -5 51 -37 83 l-37 38 -28
-27 c-22 -21 -31 -24 -40 -15 -9 9 -6 18 14 39 l27 28 -35 38 c-30 33 -40 37
-82 37 -45 0 -51 -3 -81 -40 -18 -22 -30 -44 -27 -49 3 -5 -3 -11 -14 -14 -26
-7 -61 3 -54 14 3 5 -9 27 -27 49 -30 37 -36 40 -80 40 -42 0 -50 -4 -69 -30
-12 -16 -30 -30 -41 -30 -11 0 -29 -4 -39 -10 -15 -8 -25 -2 -54 30 -31 35
-42 40 -79 40 -37 0 -48 -6 -81 -39 -28 -28 -34 -41 -25 -47 18 -11 -16 -21
-53 -16 -20 3 -26 8 -19 16 6 7 -2 23 -25 49 -30 33 -40 37 -82 37 -42 0 -50
-4 -79 -39z"/>
<path d="M327 1256 l27 -24 28 21 c15 11 28 22 28 24 0 2 -25 3 -56 3 l-55 0
28 -24z"/>
<path d="M613 1253 l27 -28 27 28 28 27 -55 0 -55 0 28 -27z"/>
<path d="M893 1253 l27 -28 27 28 28 27 -55 0 -55 0 28 -27z"/>
<path d="M1169 1254 c29 -24 31 -24 56 -8 33 22 42 12 20 -22 -17 -26 -16 -27
9 -53 l26 -26 0 68 0 67 -71 0 -71 0 31 -26z"/>
<path d="M0 922 c0 -29 1 -52 3 -52 2 0 13 13 25 29 l21 29 -25 23 -24 22 0
-51z"/>
<path d="M1250 945 l-24 -26 27 -27 27 -27 0 53 c0 28 -1 52 -3 52 -2 0 -14
-11 -27 -25z"/>
<path d="M0 638 l0 -51 24 22 25 23 -21 29 c-12 16 -23 29 -25 29 -2 0 -3 -23
-3 -52z"/>
<path d="M1250 665 l-24 -26 27 -27 27 -27 0 53 c0 28 -1 52 -3 52 -2 0 -14
-11 -27 -25z"/>
<path d="M0 360 l0 -53 25 23 25 24 -22 25 c-13 14 -24 28 -25 30 -2 2 -3 -20
-3 -49z"/>
<path d="M1252 381 l-21 -29 25 -23 24 -22 0 51 c0 29 -1 52 -3 52 -2 0 -13
-13 -25 -29z"/>
<path d="M0 62 l0 -62 66 0 65 0 -28 24 c-26 23 -30 24 -51 10 -31 -20 -39
-11 -19 19 15 23 14 26 -9 48 l-24 22 0 -61z"/>
<path d="M330 25 l-23 -25 53 0 c29 0 51 1 49 3 -2 1 -16 12 -30 25 l-25 22
-24 -25z"/>
<path d="M609 24 l-22 -24 51 0 c29 0 52 1 52 3 0 2 -13 13 -29 25 l-29 21
-23 -25z"/>
<path d="M895 25 l-30 -25 54 0 54 0 -23 25 c-13 14 -24 25 -24 25 -1 -1 -14
-12 -31 -25z"/>
</g>
</svg>
