<?xml version="1.0" standalone="no"?>
<!DOCTYPE svg PUBLIC "-//W3C//DTD SVG 20010904//EN"
 "http://www.w3.org/TR/2001/REC-SVG-20010904/DTD/svg10.dtd">
<svg version="1.0" xmlns="http://www.w3.org/2000/svg"
 width="225.000000pt" height="225.000000pt" viewBox="0 0 225.000000 225.000000"
 preserveAspectRatio="xMidYMid meet">
<metadata>
Created by potrace 1.10, written by Peter Selinger 2001-2011
</metadata>
<g transform="translate(0.000000,225.000000) scale(0.100000,-0.100000)"
fill="#000000" stroke="none">
<path d="M1057 2173 c-13 -21 -62 -103 -109 -183 -47 -80 -212 -360 -368 -624
-254 -430 -281 -481 -271 -502 l11 -24 370 0 370 0 0 -389 c0 -418 0 -417 51
-409 15 2 40 32 82 98 481 762 740 1176 749 1195 9 21 8 29 -7 45 -18 20 -27
21 -402 18 l-383 -3 0 396 c0 294 -3 398 -12 407 -24 24 -57 14 -81 -25z m53
-115 l0 -91 -23 21 c-29 27 -49 28 -72 2 -30 -33 -29 -14 0 37 54 92 75 123
85 123 6 0 10 -38 10 -92z m-36 -737 c10 -9 117 -12 381 -11 294 0 365 -2 359
-12 -5 -7 -66 -105 -137 -218 -72 -113 -218 -346 -326 -518 l-196 -313 -5 331
c-4 279 -7 332 -20 340 -9 6 -149 9 -358 8 -188 -2 -342 -2 -342 0 0 1 98 168
217 370 119 202 260 441 312 531 l96 164 3 -330 c2 -268 5 -333 16 -342z m66
31 c-22 -8 -40 8 -40 35 l1 28 24 -30 c14 -16 20 -32 15 -33z m750 -17 c0 -14
-48 -95 -56 -95 -2 0 1 12 7 27 8 22 6 32 -11 55 l-21 28 41 0 c29 0 40 -4 40
-15z m-1485 -375 c-4 -12 0 -31 9 -45 22 -33 21 -35 -18 -35 -47 0 -51 12 -20
60 29 44 39 51 29 20z m703 -107 c4 -28 -17 -23 -36 8 -12 19 -11 20 10 17 15
-2 24 -11 26 -25z m49 -623 c9 0 25 7 35 17 10 9 18 11 18 5 0 -18 -88 -152
-100 -152 -6 0 -10 37 -10 91 l0 92 21 -27 c11 -14 28 -26 36 -26z"/>
</g>
</svg>
